# xmcd CD database file
#
# Track frame offsets:
#	150
#	24414
#	49224
#	70262
#	96404
#	120242
#	146449
#	174198
#	198887
#
# Disc length: 2951 seconds
#
# Revision: 0
# Processed by: cddbd v1.5.2PL0 Copyright (c) Steve Scherf et al.
# Submitted via: CDex 1.70beta2
#
DISCID=710b8509
DTITLE=Martin Negro - Fiebre Mallorquina
DYEAR=2014
DGENRE=Jazz
TTITLE0=Noche en Munich
TTITLE1=Fiebre Mallorquina
TTITLE2=Bagatella 6 (Bela Bartok)
TTITLE3=Danza de la moza donosa (Alberto Ginastera)
TTITLE4=Basileo
TTITLE5=Don’t know
TTITLE6=Tres variaciones sobre un tema sin titulo
TTITLE7=Querido Gustav
TTITLE8=Estrategia mantis
EXTD=YEAR: 2014
EXTT0=
EXTT1=
EXTT2=
EXTT3=
EXTT4=
EXTT5=
EXTT6=
EXTT7=
EXTT8=
PLAYORDER=
